<svg preserveAspectRatio="none" xmlns="http://www.w3.org/2000/svg" viewBox="0 0 1366 768"><defs><style>.cls-1{opacity:0;}.cls-10,.cls-15,.cls-17,.cls-18,.cls-19,.cls-2,.cls-21,.cls-22,.cls-23,.cls-24,.cls-27,.cls-3,.cls-32,.cls-44,.cls-6,.cls-7,.cls-9{fill:#fff;}.cls-3{stroke:#000;stroke-miterlimit:10;}.cls-3,.cls-4,.cls-7{opacity:0.15;}.cls-5{fill:#231f20;}.cls-6{font-size:9.97px;}.cls-15,.cls-19,.cls-21,.cls-27,.cls-32,.cls-35,.cls-37,.cls-38,.cls-39,.cls-40,.cls-41,.cls-42,.cls-43,.cls-6,.cls-9{font-family:Trivial-Regular, Trivial;}.cls-8{letter-spacing:-0.12em;}.cls-9{font-size:11.33px;}.cls-10,.cls-11,.cls-26{opacity:0.2;}.cls-11,.cls-12,.cls-13,.cls-14{fill:red;}.cls-12,.cls-22{opacity:0.6;}.cls-13{opacity:0.1;}.cls-14{opacity:0.5;}.cls-15{font-size:8.31px;}.cls-16,.cls-17{opacity:0.4;}.cls-18{font-size:4.25px;}.cls-18,.cls-24,.cls-34,.cls-46,.cls-47,.cls-48{font-family:Trivial-Light, Trivial;}.cls-19{font-size:12.41px;}.cls-20{fill:#ed1c24;opacity:0.7;}.cls-21{font-size:8.09px;}.cls-23{stroke:#f2f2f2;}.cls-24{font-size:15px;}.cls-25{fill:#f2f2f2;}.cls-26{fill:#999;}.cls-27{font-size:14px;}.cls-28{letter-spacing:-0.12em;}.cls-29{letter-spacing:0em;}.cls-30{letter-spacing:-0.03em;}.cls-31{letter-spacing:0em;}.cls-32{font-size:10.73px;}.cls-33{font-size:23.6px;letter-spacing:0em;}.cls-33,.cls-36,.cls-44{font-family:Trivial-Bold, Trivial;}.cls-33,.cls-36,.cls-45{font-weight:700;}.cls-34{font-size:8.58px;}.cls-35{letter-spacing:-0.12em;}.cls-37{letter-spacing:1.48em;}.cls-38{letter-spacing:0.02em;}.cls-39{letter-spacing:4.28em;}.cls-40{letter-spacing:6.68em;}.cls-41{letter-spacing:0.95em;}.cls-42{letter-spacing:7.92em;}.cls-43{letter-spacing:7.48em;}.cls-44{font-size:6.61px;opacity:0.15;}.cls-46{letter-spacing:0.26em;}.cls-48{letter-spacing:0.23em;}</style></defs><title>gui</title><g id="BACKGROUND-TRANSPARENT"><g class="cls-1"><rect class="cls-2" x="0.5" y="0.5" width="1365" height="767"/><path d="M1365-1V765H1V-1H1365m1-1H0V766H1366V-2Z" transform="translate(0 2)"/></g><line class="cls-3" x1="966.92" y1="297.45" x2="973.72" y2="304.26"/><text class="cls-4" y="2"></text><text class="cls-4" y="2"></text><text class="cls-4" y="2"></text><path id="Text_field" class="cls-5" d="M1282.75,125.68h-32.82a1.24,1.24,0,0,0-1.25,1.25v11.63a1.24,1.24,0,0,0,1.25,1.25h32.82a1.24,1.24,0,0,0,1.25-1.25V126.93A1.24,1.24,0,0,0,1282.75,125.68Zm.62,12.88a.62.62,0,0,1-.62.62h-32.82a.62.62,0,0,1-.62-.62V126.93a.62.62,0,0,1,.62-.62h32.82a.62.62,0,0,1,.62.62Z" transform="translate(0 2)"/><text class="cls-6" transform="translate(1252.63 138.22)">82.3</text><rect id="Text_field-2" data-name="Text_field" class="cls-7" x="1178.07" y="127.68" width="63.56" height="14.12" rx="1.25" ry="1.25"/><text class="cls-6" transform="translate(1184.61 138.22)">credits</text><path id="Text_field-3" data-name="Text_field" class="cls-5" d="M1282.75,104.49h-32.82a1.24,1.24,0,0,0-1.25,1.25v11.63a1.25,1.25,0,0,0,1.25,1.25h32.82a1.25,1.25,0,0,0,1.25-1.25V105.74A1.24,1.24,0,0,0,1282.75,104.49Zm.62,12.88a.62.62,0,0,1-.62.62h-32.82a.62.62,0,0,1-.62-.62V105.74a.62.62,0,0,1,.62-.62h32.82a.62.62,0,0,1,.62.62Z" transform="translate(0 2)"/><text class="cls-6" transform="translate(1252.63 117.04)">50%</text><path id="Text_field-4" data-name="Text_field" class="cls-7" d="M1179.31,106.49h61.07a1.25,1.25,0,0,1,1.25,1.25v11.63a1.25,1.25,0,0,1-1.25,1.25h-61.07a1.25,1.25,0,0,1-1.25-1.25V107.74A1.24,1.24,0,0,1,1179.31,106.49Z"/><text class="cls-6" transform="translate(1183.95 117.04)">quo<tspan class="cls-8" x="23.92" y="0">t</tspan><tspan x="30.73" y="0">a</tspan></text><path id="Text_field-5" data-name="Text_field" class="cls-5" d="M1282.75,83.31h-32.82a1.24,1.24,0,0,0-1.25,1.25V96.19a1.24,1.24,0,0,0,1.25,1.25h32.82a1.24,1.24,0,0,0,1.25-1.25V84.55A1.24,1.24,0,0,0,1282.75,83.31Zm.62,12.88a.62.62,0,0,1-.62.62h-32.82a.62.62,0,0,1-.62-.62V84.55a.62.62,0,0,1,.62-.62h32.82a.62.62,0,0,1,.62.62Z" transform="translate(0 2)"/><text class="cls-6" transform="translate(1252.63 95.85)">100%</text><rect id="Text_field-6" data-name="Text_field" class="cls-7" x="1178.07" y="85.31" width="63.56" height="14.12" rx="1.25" ry="1.25"/><text class="cls-6" transform="translate(1184.61 95.85)">s<tspan class="cls-8" x="7.97" y="0">ta</tspan><tspan x="21.59" y="0">tus</tspan></text><text y="2"></text></g><g id="TEXT"><g id="header"><text class="cls-9" transform="translate(1232.53 57.95)">human</text><text class="cls-9" transform="translate(81.12 57.95)">Subject: jacob</text></g></g><g id="FRAMES"><path id="Frame_E_4_3-margin" data-name="Frame_E_4/3-margin" class="cls-10" d="M1319,26.7H46l-8,8v696.7l8,8H1319l8-8V34.73Zm7.22,513.64h0l-1.61,1.61V715.37l1.61,1.6v11.24l-1.61,1.61v2.41l-4.82,4.82h-2.41l-1.6,1.6h-11.24l-1.61-1.6h-276.2l-1.6,1.6H974.5l-1.61-1.61H392.1l-1.61,1.61h-50.6l-1.6-1.61H62.09l-1.61,1.61H49.24l-1.61-1.61H45.23l-4.82-4.82v-2.41l-1.61-1.61V717l1.61-1.61V541.94l-1.61-1.61h0v-50.6l1.61-1.61V278l-1.61-1.61v-50.6h0l1.61-1.61V50.79L38.8,49.18V37.94l1.61-1.61V33.93l4.82-4.82h2.41l1.61-1.61H60.48l1.61,1.61h276.2l1.6-1.61h50.6l1.61,1.61H972.9l1.61-1.61h50.6l1.6,1.61h276.2l1.61-1.61h11.24l1.6,1.61h2.41l4.82,4.82v2.41l1.61,1.61V49.18l-1.61,1.61V224.22l1.61,1.61h0v50.6l-1.6,1.61v210.1l1.6,1.6Z" transform="translate(0 2)"/></g><g id="CONNECTORS"><polygon id="Connector_Medium_09" class="cls-2" points="1279.28 62.5 1280.89 64.1 1284.9 64.1 1286.51 62.5 1286.51 61.69 1251.98 61.69 1250.38 63.3 1240.74 63.3 1239.13 61.69 936.86 61.69 935.25 63.3 935.25 64.1 934.45 64.9 933.64 64.9 932.84 65.71 838.09 65.71 838.09 66.51 839.7 68.11 848.53 68.11 849.34 67.31 850.94 67.31 851.75 66.51 866.2 66.51 867 67.31 933.64 67.31 936.05 64.9 936.05 64.1 937.66 62.49 1228.7 62.49 1230.3 64.1 1251.98 64.1 1253.59 62.49 1279.28 62.5"/><polygon id="Connector_Medium_09-2" data-name="Connector_Medium_09" class="cls-2" points="85.72 62.49 84.11 64.1 80.1 64.1 78.49 62.49 78.49 61.69 113.02 61.69 114.62 63.3 124.26 63.3 125.86 61.69 428.14 61.69 429.75 63.3 429.75 64.1 430.55 64.9 431.36 64.9 432.16 65.7 526.9 65.71 526.9 66.51 525.29 68.11 516.46 68.11 515.66 67.31 514.06 67.31 513.25 66.51 498.8 66.51 498 67.31 431.36 67.31 428.95 64.9 428.95 64.1 427.34 62.49 136.3 62.49 134.69 64.1 113.02 64.1 111.41 62.49 85.72 62.49"/></g><g id="GUI_BODY_COMPONENT"><path id="bodyScreen" class="cls-7" d="M284.07,389.22H58.26L52.8,399.85V720.52l3.64,7.09H285.89l3.64-7.09V399.85l-5.46-10.63Zm14.57,293.42h-5.46v41.51l3.64,3.46H336l.91-.87v-6.05L325,709.45v-1.73l-26.41-25.08Z" transform="translate(0 2)"/><path id="body" class="cls-2" d="M218.61,572.69l5-5-.15-.44-5,5A4.49,4.49,0,0,1,218.61,572.69Zm-17.78,17.19-22.53,22.53.12.47,22.5-22.5Zm.31,18.24-18.49,18.49.16.43,18.26-18.26Zm-1.83-26L176.4,605l.12.48,22.89-22.89Zm2.13,12V594l-22.16,22.16.12.48,22.09-22.09C201.46,594.37,201.45,594.23,201.43,594.09Zm17.35-3,7.6-7.61.06-.65-7.38,7.38Zm-.65-8.62,8.11-8.11-.18-.42-8,8Zm-20.48-7.94-22.87,22.87c0,.17,0,.34.07.52L197.76,575Zm-55.89,24.08,52.08-52.08-.12-.48-52,52C141.76,598.17,141.76,598.37,141.76,598.58Zm61.76-57.17,11.7-11.7-.14-.45-11.69,11.69Zm18.51,18-6.52,6.52.21.39,6.38-6.38Zm-27.67-8.83c0-.2,0-.4,0-.6l-52.51,52.51c0,.19,0,.38,0,.56Zm11.53-2.25,12-12-.14-.46-12,12Zm14.93,3L212.19,560l.22.38,8.49-8.49Zm-1.37-7.9L208.83,554l.21.38,10.49-10.49ZM139.36,647.35l21.8-21.8.34-.94-22,22Zm3.16-12.43,22.63-22.63.21-.81-22.67,22.67C142.64,634.37,142.59,634.63,142.52,634.92Zm56-56.56-23,23,.11.49,23-23Zm2.77-44.53c.05.12.11.26.16.41l11.84-11.84-.11-.49-11.9,11.9Zm-4.38,36.86-22.45,22.45,0,.56L197,571.18ZM200.1,586l-22.76,22.76.12.47,22.74-22.74Zm-3.71-19.52-22.27,22.27,0,.56L196.45,567C196.43,566.85,196.42,566.67,196.39,566.49Zm25.25,35.41c.18-.26.35-.56.53-.85l-2.32,2.32C220.37,603.33,221,602.88,221.64,601.9Zm-26-39.22-21.77,21.77,0,.56,21.86-21.86Zm-57,113.21,16.68-16.68c.06-.26.12-.52.17-.77l-16.89,16.89Zm61.81-62.41L183.93,630l.17.43,16.24-16.24Zm-.9,5.49L185.22,633.3l.17.43,14.14-14.14C199.53,619.37,199.54,619.18,199.55,619Zm-61.72,39.18,18.06-18.06c0-.24,0-.46.07-.67l-18.13,18.13C137.83,657.75,137.83,658,137.83,658.16Zm63.7-55-20.11,20.11.16.44,19.92-19.92C201.5,603.56,201.51,603.35,201.53,603.14Zm.12-4.81-21.41,21.41.15.45,21.28-21.28C201.65,598.72,201.65,598.53,201.65,598.33Zm-63.53,68.81,17.64-17.64c0-.19,0-.38,0-.58l-17.65,17.65Zm5.59-42.69L168.17,600l.15-.74-24.58,24.58C143.73,624,143.72,624.24,143.7,624.45Zm3.7-101.63c.08.07.16.17.24.25l43-43-.45-.15-66.82,66.82-.13.72L147,523.73Zm3.07,6.69,47-47-.16-.08-.25-.1L150.36,529C150.4,529.2,150.44,529.36,150.47,529.52Zm33.11-52.25-57.4,57.4a9.58,9.58,0,0,0-.38,1L184,477.49Zm-2.86-6.42-50.31,50.31-.16.76,50.43-50.43A4.31,4.31,0,0,1,180.72,470.85Zm-37.57,60.81-20.73,20.73-.11.71,20.3-20.3ZM118.7,570.57l15-15,.77-1.36-15.41,15.41Zm19.91-25.09-17.76,17.76-.09.69,17.52-17.52C138.39,546.1,138.5,545.79,138.61,545.48Zm12.76-7.58,52.14-52.14-.37-.23-51.72,51.72C151.41,537.45,151.4,537.66,151.37,537.9Zm-10.73.86-19,19-.1.7,18.9-18.9Zm19.63-74.69,20-20-.27-.33L160,463.73Zm13.92-23.8L160.58,453.9c0,.22,0,.42,0,.62l14.12-14.12Zm-28.12,42.14-.1,0-14.21,14.21c0,.22-.06.46-.09.69L147,482.05C146.65,482.18,146.33,482.3,146.07,482.42ZM153,480,131.3,501.73c0,.21,0,.42,0,.63l22.61-22.61Zm9.68-9.35c0,.08,0,.16,0,.24l20-20c0-.19,0-.38,0-.56L162.62,470.4Zm-31.46,41L184.85,458a2.14,2.14,0,0,0-.21-.38L131.2,511.1C131.2,511.29,131.21,511.5,131.21,511.69Zm-8.08,91.55,2.39-2.39c.08-.25.15-.53.21-.81l-3,3A2,2,0,0,0,123.13,603.24Zm70.25-75.43L145.5,575.69l-.16.76,47.81-47.81C193.22,528.36,193.3,528.08,193.38,527.81Zm-72.54,72.54.21.38,4.87-4.87c0-.17-.06-.34-.09-.51Zm22.05-12.18,49.28-49.28c0-.18-.05-.35-.08-.52L143,587.44Zm-18.06,3.51-5.52,5.52.17.42,5.49-5.49Zm-.74-3.36a2.67,2.67,0,0,0,.35-.83l-6.34,6.34c0,.15.08.3.13.46L124,588.5A.4.4,0,0,1,124.08,588.31Zm25-38.84,59.75-59.75-.3-.3-59.41,59.41C149.09,549,149.09,549.26,149.08,549.47Zm-5,32.83,48.09-48.09c0-.22,0-.44.08-.67l-48,48Zm-2,11.31,50.91-50.91-.11-.49-50.72,50.72C142.09,593.17,142.06,593.39,142,593.61Zm-25.41-16.28,11.1-11.1.71-1.3-11.8,11.8C116.62,576.93,116.62,577.12,116.63,577.33Zm8.42.25-7.85,7.85,0,.55,7.88-7.88Zm73.18-50,.2.4,13.74-13.74c0-.19,0-.4,0-.6ZM148.72,559.1l62.86-62.86-.09-.51-62.58,62.58Zm-24,14.1-7.92,7.92,0,.55,7.84-7.84C124.71,573.62,124.73,573.41,124.75,573.2Zm21.8-2.66,65.66-65.66c0-.2,0-.39,0-.59l-65.53,65.53C146.64,570.05,146.6,570.29,146.56,570.54Zm-21.2,11.33-7.81,7.81c0,.22,0,.4,0,.57l7.7-7.7ZM218,601.14l7.35-7.35c.08-.28.17-.57.23-.83l-7.72,7.72C217.89,600.84,217.93,601,218,601.14Zm.37-23.51,6.56-6.56-.17-.43-6.28,6.28C218.42,577.17,218.39,577.4,218.35,577.63Zm4.25-14.12L217.12,569l.2.4,5.35-5.35Zm-4,22.5c0,.17.06.34.1.5l8-8c0-.21,0-.42,0-.62Zm-14-41,11.85-11.85-.18-.41-11.82,11.82Zm-5,78.58-13.09,13.09.17.42,12.95-12.95C199.67,623.94,199.66,623.75,199.65,623.56Zm21.8-68.17L213.88,563l.21.38,7.43-7.43Zm-14-3.93,11.35-11.35-.11-.49-11.45,11.45Zm12.74-4.06L210.52,557l.22.38,9.51-9.51Zm-2.81,49.78,8.58-8.58c0-.21,0-.42.05-.65l-8.59,8.59C217.38,596.75,217.36,597,217.35,597.18Zm-11.92,67-11.66,11.66.16.43,11.47-11.47Zm-.54,9.81L196,682.82c0,.17,0,.35.07.53l8.74-8.74Zm-9.49,19.36,8.74-8.74,0-.64-8.63,8.63C195.5,692.81,195.45,693.06,195.4,693.33ZM204,647.06l-15.1,15.1.14.46,15.07-15.07Zm-1.88-7.4-14.61,14.61c0,.33,0,.53,0,.62l14.76-14.76Zm3.38,15.17-14.25,14.25.16.44,14.13-14.13C205.51,655.2,205.49,655,205.48,654.83Zm-5-22.23-.06-.53L187.7,644.79c0,.2,0,.4,0,.59Zm-50.26-88.87,56.1-56.1-.35-.25L150.4,543Zm-19-27.36,50.61-50.61a2.51,2.51,0,0,1,.6-.89,6.65,6.65,0,0,0,1.21-1.52l-52.39,52.39c0,.15,0,.31,0,.43S131.21,516.31,131.21,516.38Zm50.39-41.71-52.71,52.71-.24.84,53.15-53.15C181.73,474.93,181.66,474.8,181.6,474.67Zm1.28-19.82-51.7,51.7c0,.2,0,.4,0,.6l51.74-51.74C182.9,455.22,182.88,455,182.87,454.84ZM169.68,440.2l-8.86,8.86c0,.21,0,.43-.07.66l9.62-9.62C170.14,440.13,169.91,440.17,169.68,440.2Zm17.09,38.56-62.35,62.35-.15.75,62.94-62.94Zm-8.89-36.89-.36-.24-19,19c0,.15.09.3.14.46Zm24.62,96,11.67-11.67-.12-.47-11.68,11.68ZM162,467l20-20-.22-.37-19.94,19.94C161.93,466.7,162,466.86,162,467Zm-14.8,98.27L212,500.47c0-.19,0-.37,0-.55l-64.63,64.63C147.31,564.8,147.26,565,147.22,565.29ZM149.41,526l44.74-44.74-.45-.15-44.48,44.48C149.29,525.72,149.35,525.86,149.41,526Zm-6.1,89.58,25.92-25.92,0-.64-26.06,26.06Zm53.63-90.73,15.29-15.29c0-.2,0-.4,0-.6l-15.49,15.49Zm-45.77,8.67,49.45-49.45-.39-.21L151.1,533C151.12,533.17,151.14,533.35,151.16,533.52ZM205.06,693c0-.23,0-.43,0-.62l-9.73,9.73,0,.55Zm-55.88-138.9,61.5-61.5c-.05-.15-.11-.29-.17-.42l-61.36,61.36C149.16,553.69,149.17,553.87,149.18,554.06Zm50.79-23,12.52-12.52-.08-.51-12.64,12.64Zm-61.39,168,8.81-8.81c0-.17,0-.36-.06-.54l-8.75,8.75C138.59,698.7,138.58,698.89,138.58,699.09Zm-.25-28.17,0,.56,17.54-17.54c0-.17,0-.36,0-.57Zm.62,9.26,14.42-14.42.3-.9L138.9,679.62Zm-1-17.53,17.79-17.78c0-.2,0-.4,0-.6L137.9,662.07C137.91,662.26,137.92,662.45,137.92,662.65Zm.23-9.5L158.31,633l.39-1-20.42,20.42C138.23,652.67,138.19,652.92,138.15,653.15Zm10.14,26.37L139,688.77c-.1.31-.21.61-.31.91l9.26-9.26C148.07,680.14,148.18,679.83,148.29,679.51Zm-9.85,15.13,8.71-8.71c0-.2,0-.41,0-.61l-8.75,8.75Zm49.1-54.38c0,.18,0,.36,0,.55L200,628.37l-.05-.55Zm-48.27,44.28,11.39-11.39.36-1L139.22,684Zm54.92-129.72-23.27,23.27.47.12,22.77-22.77C194.17,555.25,194.18,555,194.19,554.82Zm11.07,146.6-10.49,10.49c0,.15.1.29.16.43l10.49-10.49ZM194.65,559,173.56,580l0,.56,21.17-21.17Zm-50.77,60.64,25-25,0-.64L143.86,619C143.87,619.2,143.88,619.39,143.88,619.59Zm-1.2-8.07,26.89-26.89,0-.64-27,27Zm.6,18,23.5-23.5.2-.79-23.64,23.64Zm-2.34,11.61,22.62-22.62c.08-.29.16-.56.22-.81l-22.63,22.63Zm1.27-33.68,27.66-27.66c0-.23,0-.43,0-.63l-27.74,27.74C142.17,607,142.19,607.23,142.2,607.41Zm62.31,72.13,0-.64-8.31,8.31c0,.21,0,.41,0,.62Zm.68-10.55L195,679.17l.15.44,10-10Zm-10,29.16,9.25-9.25-.15-.45-9.11,9.11C195.17,697.76,195.17,698,195.17,698.15Zm11.4,6.56-9.49,9.49.19,0h.38l9.1-9.1Zm-4.14,8.83.76-.17,4.93-4.93L208,708Zm2.43-16.39-10.61,10.62a6.37,6.37,0,0,0-.07.66l10.66-10.66C204.84,697.56,204.85,697.35,204.86,697.14Zm.71-37.81-13.09,13.09.16.43,12.92-12.92C205.56,659.73,205.57,659.53,205.57,659.33Zm-4.43-23.39-13.49,13.49c0,.21,0,.41,0,.61l13.62-13.62Zm-64.91,70.2,11.9-11.9c0-.18,0-.36-.06-.54l-11.39,11.39ZM203,643.3l-15.14,15.14.11.49,15.15-15.15Zm-54.81,54.81L135,711.38a2.08,2.08,0,0,0,.32.27l12.93-12.93C148.23,698.52,148.23,698.32,148.23,698.12Zm-6.33,15.6.51.09,6.64-6.64c0-.16-.08-.32-.12-.47Zm62.91-62.91L190,665.63l.15.44,14.77-14.77ZM148,703.07l-9.78,9.78.46.13,9.26-9.26C147.93,703.57,147.95,703.36,148,703.07Zm-1.83,11.16a2.57,2.57,0,0,0,.65-.11l1.62-1.62a7.14,7.14,0,0,0,.33-.93l-2.66,2.66Z" transform="translate(0 2)"/><g id="leftFoot"><g id="leftFootTarget"><circle id="Crosshair_part" class="cls-11" cx="143.9" cy="702.47" r="2.69"/><path id="Crosshair_part-2" data-name="Crosshair_part" class="cls-12" d="M143.91,694.06a6.42,6.42,0,1,0,6.42,6.42A6.43,6.43,0,0,0,143.91,694.06Zm0,10.75a4.33,4.33,0,1,1,4.33-4.33A4.34,4.34,0,0,1,143.91,704.81Z" transform="translate(0 2)"/></g><rect id="leftFootBoundary" class="cls-13" x="130.59" y="679.36" width="24.4" height="44.13"/><g id="leftFootLabel"><polygon id="Connector" class="cls-14" points="102.02 646.65 106.14 649.86 106.14 651.24 105.55 651.7 105.55 655.84 104.97 656.29 104.97 658.28 107.91 660.57 107.91 661.49 139.9 686.45 140.49 686.45 141.07 686.91 141.07 687.37 140.78 687.6 104.38 659.19 104.38 654.14 104.97 653.68 104.97 649.86 101.43 647.11 99.67 647.11 99.08 647.57 97.31 647.57 97.31 646.65 102.02 646.65"/><path id="Text_field_HEAD" class="cls-14" d="M142,644.75c0,.57-.89,1-2,1H65.18c-1.1,0-2-.46-2-1v-9.7c0-.57.89-1,2-1H140c1.1,0,2,.46,2,1Z" transform="translate(0 2)"/><text class="cls-15" transform="translate(70.22 644.81)">foot view A</text></g></g><g id="rightFoot"><g id="rightFootTarget"><circle id="Crosshair_part-3" data-name="Crosshair_part" class="cls-11" cx="201.01" cy="703.51" r="2.69"/><path id="Crosshair_part-4" data-name="Crosshair_part" class="cls-12" d="M201,695.1a6.42,6.42,0,1,0,6.42,6.42A6.43,6.43,0,0,0,201,695.1Zm0,10.75a4.33,4.33,0,1,1,4.33-4.33A4.34,4.34,0,0,1,201,705.85Z" transform="translate(0 2)"/></g><rect id="rightFootBoundary" class="cls-13" x="188.74" y="678.32" width="24.4" height="44.13"/><g id="rightFootLabel"><polygon id="Connector-2" data-name="Connector" class="cls-14" points="240.47 646.65 236.35 650.03 236.35 651.47 236.94 651.96 236.94 656.3 237.53 656.78 237.53 658.87 234.59 661.28 234.59 662.24 202.6 688.47 202.01 688.47 201.42 688.95 201.42 689.43 201.72 689.67 238.12 659.83 238.12 654.52 237.53 654.04 237.53 650.03 241.06 647.13 242.83 647.13 243.42 647.61 245.19 647.61 245.19 646.65 240.47 646.65"/><path id="Text_field_HEAD-2" data-name="Text_field_HEAD" class="cls-14" d="M281.15,643.71c0,.57-.89,1-2,1H204.31c-1.1,0-2-.46-2-1V634c0-.57.89-1,2-1h74.84c1.1,0,2,.46,2,1Z" transform="translate(0 2)"/><text class="cls-15" transform="translate(209.35 643.77)">foot view B</text></g></g><g id="rightHand"><g id="rightHandTarget"><circle id="Crosshair_part-5" data-name="Crosshair_part" class="cls-11" cx="221.78" cy="594.49" r="2.69"/><path id="Crosshair_part-6" data-name="Crosshair_part" class="cls-12" d="M221.78,586.07a6.42,6.42,0,1,0,6.42,6.42A6.43,6.43,0,0,0,221.78,586.07Zm0,10.75a4.33,4.33,0,1,1,4.33-4.33A4.34,4.34,0,0,1,221.78,596.82Z" transform="translate(0 2)"/></g><rect id="rightHandBoundary" class="cls-13" x="209.51" y="568.26" width="24.4" height="44.13"/><g id="rightHandLabel"><path id="Text_field_HEAD-3" data-name="Text_field_HEAD" class="cls-14" d="M280.11,556.49c0,.57-.89,1-2,1H203.28c-1.1,0-2-.46-2-1v-9.7c0-.57.89-1,2-1h74.84c1.1,0,2,.46,2,1Z" transform="translate(0 2)"/><polygon id="Connector-3" data-name="Connector" class="cls-14" points="244.83 559.32 244.25 559.9 243.07 559.9 240.12 562.85 240.12 565.79 240.71 566.38 240.71 580.32 241.3 580.91 241.3 583.45 238.36 586.39 238.36 587.57 221.29 604.64 220.7 604.64 220.11 605.23 220.11 605.82 220.4 606.12 241.89 584.63 241.89 578.15 241.3 577.57 241.3 562.26 242.48 561.08 244.25 561.08 245.42 559.9 250.72 559.9 251.31 560.49 253.08 560.49 253.08 559.32 244.83 559.32"/><text class="cls-15" transform="translate(206.24 556.55)">hands view B</text></g></g><g id="leftHand"><g id="leftHandTarget"><circle id="Crosshair_part-7" data-name="Crosshair_part" class="cls-11" cx="122.1" cy="594.49" r="2.69"/><path id="Crosshair_part-8" data-name="Crosshair_part" class="cls-12" d="M122.1,586.07a6.42,6.42,0,1,0,6.42,6.42A6.43,6.43,0,0,0,122.1,586.07Zm0,10.75a4.33,4.33,0,1,1,4.33-4.33A4.34,4.34,0,0,1,122.1,596.82Z" transform="translate(0 2)"/></g><rect id="leftHandBoundary" class="cls-13" x="110.87" y="569.29" width="24.4" height="44.13"/><g id="leftHandLabel"><path id="Text_field_HEAD-4" data-name="Text_field_HEAD" class="cls-14" d="M139.94,554.42c0,.57-.89,1-2,1H63.1c-1.1,0-2-.46-2-1v-9.7c0-.57.89-1,2-1h74.84c1.1,0,2,.46,2,1Z" transform="translate(0 2)"/><text class="cls-15" transform="translate(65.03 554.48)">hands view A</text><polygon id="Connector-4" data-name="Connector" class="cls-14" points="97.46 557.24 98.05 557.71 99.23 557.71 102.19 560.07 102.19 562.43 101.6 562.9 101.6 574.07 101.01 574.54 101.01 576.58 103.96 578.93 103.96 579.88 121.11 593.55 121.7 593.55 122.29 594.02 122.29 594.5 121.99 594.73 100.42 577.52 100.42 572.33 101.01 571.86 101.01 559.6 99.83 558.65 98.05 558.65 96.87 557.71 91.55 557.71 90.96 558.18 89.18 558.18 89.18 557.24 97.46 557.24"/></g></g><g id="chest"><g id="chestTarget"><ellipse id="Crosshair_part-9" data-name="Crosshair_part" class="cls-11" cx="170.41" cy="511.43" rx="2.62" ry="2.69"/><path id="Crosshair_part-10" data-name="Crosshair_part" class="cls-12" d="M170.41,503a6.42,6.42,0,1,0,6.26,6.42A6.35,6.35,0,0,0,170.41,503Zm0,10.75a4.33,4.33,0,1,1,4.22-4.33A4.28,4.28,0,0,1,170.41,513.76Z" transform="translate(0 2)"/></g><rect id="chestBoundary" class="cls-13" x="150.84" y="482.74" width="42.05" height="66.3"/><g id="chestLabel"><path id="Text_field_HEAD-5" data-name="Text_field_HEAD" class="cls-14" d="M192.89,569a1.07,1.07,0,0,1-1.1,1h-41.4a1.07,1.07,0,0,1-1.1-1v-9.7a1.07,1.07,0,0,1,1.1-1h41.4a1.07,1.07,0,0,1,1.1,1Z" transform="translate(0 2)"/><text class="cls-15" transform="translate(154.32 569.01)">Chest</text><polygon id="Connector-5" data-name="Connector" class="cls-14" points="170.69 515.59 170.18 561.91 169.58 562.49 168.99 562.49 169.03 559.55 169.62 558.97 169.98 526.72 169.39 526.13 169.51 515.57 170.69 515.59"/></g></g><g id="rightShoulder"><g id="rightShoulderTarget"><circle id="Crosshair_part-11" data-name="Crosshair_part" class="cls-11" cx="204.13" cy="488.58" r="2.69"/><path id="Crosshair_part-12" data-name="Crosshair_part" class="cls-12" d="M204.13,480.16a6.42,6.42,0,1,0,6.42,6.42A6.43,6.43,0,0,0,204.13,480.16Zm0,10.75a4.33,4.33,0,1,1,4.33-4.33A4.34,4.34,0,0,1,204.13,490.91Z" transform="translate(0 2)"/></g><rect id="rightShoulderBoundary" class="cls-13" x="192.89" y="474.44" width="21.51" height="29.96"/><g id="rightShoulderLabel"><polygon id="Connector-6" data-name="Connector" class="cls-14" points="198.17 478.28 198.58 479.15 236.54 479.15 237.76 481.77 238.17 481.77 243.47 493.14 247.56 493.14 247.96 494.02 257.35 494.02 257.35 492.27 253.68 492.27 253.27 493.14 249.19 493.14 248.78 492.27 244.29 492.27 243.88 491.39 243.06 491.39 240.21 485.27 240.21 483.53 239.39 481.78 238.98 481.78 237.35 478.28 201.43 478.28 201.03 477.4 198.17 477.4 198.17 478.28"/><path id="Text_field_HEAD-6" data-name="Text_field_HEAD" class="cls-14" d="M276,502.5a1,1,0,0,1-.94,1H239.61a1,1,0,0,1-.94-1v-9.7a1,1,0,0,1,.94-1H275a1,1,0,0,1,.94,1Z" transform="translate(0 2)"/><text class="cls-15" transform="translate(243.62 502.56)">side</text></g></g><g id="leftShoulder"><g id="leftShoulderTarget"><circle id="Crosshair_part-13" data-name="Crosshair_part" class="cls-11" cx="140.79" cy="489.62" r="2.69"/><path id="Crosshair_part-14" data-name="Crosshair_part" class="cls-12" d="M140.79,481.2a6.42,6.42,0,1,0,6.42,6.42A6.43,6.43,0,0,0,140.79,481.2Zm0,10.75a4.33,4.33,0,1,1,4.33-4.33A4.34,4.34,0,0,1,140.79,492Z" transform="translate(0 2)"/></g><rect id="leftShoulderBoundary" class="cls-13" x="129.56" y="474.44" width="21.51" height="29.96"/><g id="leftShoulderLabel"><path id="Text_field_HEAD-7" data-name="Text_field_HEAD" class="cls-14" d="M102.56,502.5a1,1,0,0,1-.94,1H66.21a1,1,0,0,1-.94-1v-9.7a1,1,0,0,1,.94-1h35.41a1,1,0,0,1,.94,1Z" transform="translate(0 2)"/><text class="cls-15" transform="translate(70.22 502.56)">back</text><polygon id="Connector-7" data-name="Connector" class="cls-14" points="140.98 478.28 140.57 479.15 102.61 479.15 101.39 481.77 100.98 481.77 95.67 493.14 91.59 493.14 91.18 494.02 81.79 494.02 81.79 492.27 85.47 492.27 85.87 493.14 89.96 493.14 90.36 492.27 94.86 492.27 95.26 491.39 96.08 491.39 98.94 485.27 98.94 483.53 99.75 481.78 100.16 481.78 101.79 478.28 137.71 478.28 138.12 477.4 140.98 477.4 140.98 478.28"/></g></g><g id="head"><g id="headTarget"><circle id="Crosshair_part-15" data-name="Crosshair_part" class="cls-11" cx="171.2" cy="457.13" r="3.68"/><path id="Crosshair_part-16" data-name="Crosshair_part" class="cls-12" d="M171.21,446.33a8.8,8.8,0,1,0,8.8,8.8A8.81,8.81,0,0,0,171.21,446.33Zm0,14.74a5.94,5.94,0,1,1,5.94-5.94A5.95,5.95,0,0,1,171.21,461.07Z" transform="translate(0 2)"/></g><rect id="headBoundary" class="cls-13" x="156.55" y="438.99" width="29.07" height="42.57"/><g id="headLabel"><path id="Text_field_HEAD-8" data-name="Text_field_HEAD" class="cls-14" d="M130.59,454.74a1,1,0,0,1-1,1H93.15a1,1,0,0,1-1-1V445a1,1,0,0,1,1-1h36.47a1,1,0,0,1,1,1Z" transform="translate(0 2)"/><text class="cls-15" transform="translate(97.22 454.8)">HEAD</text><polygon id="Connector-8" data-name="Connector" class="cls-14" points="130.54 452.36 161.74 452.36 162.32 452.95 162.32 453.54 159.38 453.54 158.79 452.95 134.07 452.95 133.48 453.54 130.54 453.54 130.54 452.36"/></g></g><g id="design" class="cls-16"><polygon class="cls-2" points="128.99 403.26 119.88 412.37 124.41 412.37 133.52 403.26 128.99 403.26"/><polygon class="cls-2" points="140.2 403.26 131.09 412.37 135.63 412.37 144.74 403.26 140.2 403.26"/><polygon class="cls-2" points="151.41 403.26 142.31 412.37 146.84 412.37 155.95 403.26 151.41 403.26"/><polygon class="cls-2" points="117.77 403.26 108.66 412.37 113.2 412.37 122.31 403.26 117.77 403.26"/><polygon class="cls-2" points="84.13 403.26 75.02 412.37 79.56 412.37 88.66 403.26 84.13 403.26"/><polygon class="cls-2" points="162.63 403.26 153.52 412.37 158.06 412.37 167.16 403.26 162.63 403.26"/><polygon class="cls-2" points="72.91 403.26 63.81 412.37 68.34 412.37 77.45 403.26 72.91 403.26"/><polygon class="cls-2" points="106.56 403.26 97.45 412.37 101.98 412.37 111.09 403.26 106.56 403.26"/><polygon class="cls-2" points="95.34 403.26 86.24 412.37 90.77 412.37 99.88 403.26 95.34 403.26"/><polygon class="cls-2" points="61.7 403.26 59.85 405.11 59.85 409.64 66.23 403.26 61.7 403.26"/><polygon class="cls-2" points="252.34 403.26 243.24 412.37 247.77 412.37 256.88 403.26 252.34 403.26"/><polygon class="cls-2" points="241.13 403.26 232.03 412.37 236.55 412.37 245.66 403.26 241.13 403.26"/><polygon class="cls-2" points="275.92 403.26 274.77 403.26 265.67 412.37 270.2 412.37 275.92 406.65 275.92 403.26"/><polygon class="cls-2" points="263.56 403.26 254.46 412.37 258.99 412.37 268.09 403.26 263.56 403.26"/><polygon class="cls-2" points="229.92 403.26 220.81 412.37 225.35 412.37 234.45 403.26 229.92 403.26"/><polygon class="cls-2" points="207.49 403.26 198.38 412.37 202.92 412.37 212.02 403.26 207.49 403.26"/><polygon class="cls-2" points="185.06 403.26 175.95 412.37 180.49 412.37 189.59 403.26 185.06 403.26"/><polygon class="cls-2" points="196.27 403.26 187.17 412.37 191.7 412.37 200.81 403.26 196.27 403.26"/><polygon class="cls-2" points="218.7 403.26 209.59 412.37 214.13 412.37 223.24 403.26 218.7 403.26"/><polygon class="cls-2" points="173.85 403.26 164.74 412.37 169.27 412.37 178.37 403.26 173.85 403.26"/></g><text class="cls-9" transform="translate(117.2 430.86)">SWITCH CAMERA ANGLE</text><path id="bodyDesignArrow_02" class="cls-2" d="M240.44,441.9h6.73l2.24,2.24-2.24,2.24h-6.73l2.24-2.24Zm11.22,2.24-2.24,2.24h6.73l2.24-2.24-2.24-2.24h-6.73Zm9,0-2.25,2.24h6.73l2.25-2.24-2.25-2.24h-6.73Z" transform="translate(0 2)"/><path id="bodyDesignArrow_01" class="cls-17" d="M240.44,457.72h6.73l2.24,2.24-2.24,2.24h-6.73l2.24-2.24ZM251.66,460l-2.24,2.24h6.73l2.24-2.24-2.24-2.24h-6.73Zm9,0-2.25,2.24h6.73l2.25-2.24-2.25-2.24h-6.73Z" transform="translate(0 2)"/><path id="bodyDesignBarcode_01" class="cls-2" d="M66.18,697.6H62.4v18.28h3.78Zm6,0H68.39v18.28h3.78ZM98,715.88h2V697.6H98Zm-5.37,0h2V697.6h-2Zm13.16-18.28h-2v18.28h2Zm-33,18.28h3.78V697.6H72.79Zm28,0h.7V697.6h-.7Zm-12.93,0h2V697.6h-2Zm-3,0h2V697.6h-2Zm11.06,0h.7V697.6h-.7Zm-17.89,0h.7V697.6H78Zm2.22,0h2V697.6h-2Zm2.8,0h.7V697.6H83Zm25.56-18.28h-2v18.28h2ZM90.74,715.88h.7V697.6h-.7ZM67.6,697.6h-.7v18.28h.7Z" transform="translate(0 2)"/><text class="cls-18" transform="translate(61.79 694.08)">701628/8888-59</text><path id="bodyDesignArrow_03" class="cls-2" d="M314.56,711.54l-6.5,7.83h-6.74l6.5-7.83-6.5-7.84h6.74Z" transform="translate(0 2)"/></g><g id="GUI_HEARTRATE_COMPONENT"><g id="heartrate"><g id="heartRateNum"><path id="heartRateFrame" class="cls-2" d="M142.49,91.48H114.76c-.58,0-1.05.69-1.05,1.55v14.49c0,.86.47,1.55,1.05,1.55h27.73c.58,0,1.05-.69,1.05-1.55V93C143.55,92.17,143.08,91.48,142.49,91.48Zm.53,16c0,.43-.24.78-.53.78H114.76c-.29,0-.53-.35-.53-.78V93c0-.43.24-.78.53-.78h27.73c.29,0,.53.35.53.78Z" transform="translate(0 2)"/><text class="cls-19" transform="translate(118.62 106.62)">93</text></g><path class="cls-20" d="M100.89,79.05a7.2,7.2,0,0,0-7.2,7.07,7.2,7.2,0,1,0-12.75,4.7l12.75,15.36,12.75-15.36a7.2,7.2,0,0,0-5.55-11.77Z" transform="translate(0 2)"/><rect id="Text_field-7" data-name="Text_field" class="cls-17" x="114.04" y="78.7" width="17.19" height="11.46" rx="1.01" ry="1.01"/><text class="cls-21" transform="translate(116.17 87.27)">HR</text><polygon id="monitorFrame" class="cls-22" points="166.31 76.45 165.66 76.89 156.69 76.89 156.04 77.34 156.04 77.79 155.4 78.24 155.4 87.19 156.04 87.63 156.04 95.69 155.4 96.13 155.4 109.56 156.04 110.01 156.04 110.9 159.89 113.59 160.53 113.59 161.82 114.48 166.31 114.48 166.95 114.03 182.34 114.03 182.98 113.59 194.52 113.59 194.52 114.03 193.24 114.93 161.18 114.93 154.76 110.45 154.76 76.89 156.04 76 283.01 76 283.01 76.45 282.37 76.89 269.55 76.89 268.91 76.45 166.31 76.45"/></g></g><g id="GUI_BUTTON_COMPONENT"><path id="background" class="cls-7" d="M746.56,561.34H606.92a36.73,36.73,0,0,0-5-.34c-19.58,0-35.44,15.42-35.44,34.44s15.87,34.44,35.44,34.44a36.73,36.73,0,0,0,5-.34H746.56c19.58,0,35.44-15.27,35.44-34.1S766.13,561.34,746.56,561.34Z" transform="translate(0 2)"/><g id="extractButton"><polygon class="cls-23" points="619.87 597.83 592.16 581.83 592.16 613.82 619.87 597.83"/><polygon id="Connector_Medium_11" class="cls-2" points="666.92 578.87 670.1 573.94 670.1 573.45 670.9 572.22 671.06 572.22 671.85 570.99 674.56 570.99 674.72 570.74 756.84 570 757 570.25 757 570.49 751.59 570.49 751.43 570.25 676.46 570.99 676.3 571.23 672.17 571.23 671.69 571.97 671.53 571.97 666.92 579.11 650.07 579.11 649.59 578.37 648.95 578.37 648.79 578.62 648.16 578.62 648 578.37 647.84 578.37 645.93 575.42 641 575.42 641 575.17 641.16 574.92 642.43 574.92 642.59 575.17 646.09 575.17 647.84 577.88 650.07 577.88 650.38 578.37 650.86 578.37 651.18 578.87 666.92 578.87"/><polygon id="Connector_Medium_09-3" data-name="Connector_Medium_09" class="cls-2" points="649.26 622.53 648.76 622.04 647.53 622.04 647.04 622.53 647.04 622.78 657.63 622.78 658.12 622.29 661.08 622.29 661.57 622.78 715.25 622.78 715.75 622.29 715.75 622.04 715.99 621.8 716.24 621.8 716.49 621.55 745.54 621.55 745.54 621.3 745.05 620.81 742.34 620.81 742.1 621.06 741.61 621.06 741.36 621.3 736.93 621.3 736.68 621.06 716.24 621.06 715.5 621.8 715.5 622.04 715.01 622.53 664.77 622.53 664.28 622.04 657.63 622.04 657.14 622.53 649.26 622.53"/><text class="cls-24" transform="translate(655.88 595.21)">Extract <tspan x="6" y="18">memory</tspan></text><g id="HUD_07"><path id="HUD_part" class="cls-25" d="M569,596.31l-.57-.57h1.72l.57.57-.57.57h-1.72Zm65.24,0,.57-.57h-1.72l-.57.57.57.57h1.72Zm-31.75,31.47-.87-1.5-.87,1.5Zm-1.74-62.93.87,1.5.87-1.5Z" transform="translate(0 2)"/><path id="HUD_part-2" data-name="HUD_part" class="cls-25" d="M617.57,619.78a.66.66,0,1,1-.23-.32,27.93,27.93,0,0,0,0-46.28.66.66,0,1,1,.23-.32,28.33,28.33,0,0,1,0,46.93Zm-30.85-.36a.66.66,0,0,0-.76,0,27.93,27.93,0,0,1,0-46.28.66.66,0,1,0-.23-.32,28.33,28.33,0,0,0,0,46.93.66.66,0,1,0,1-.36Z" transform="translate(0 2)"/></g></g><circle id="playButton" class="cls-26" cx="601.5" cy="597.5" r="34.5"/></g><g id="GUI_STATUS"><g id="statusbar"><text class="cls-27" transform="translate(563.12 70.38)">S<tspan class="cls-28" x="11.2" y="0">ta</tspan><tspan class="cls-29" x="30.33" y="0">tus: obser</tspan><tspan class="cls-30" x="129.26" y="0">v</tspan><tspan class="cls-28" x="140" y="0">a</tspan><tspan class="cls-31" x="149.57" y="0">tion mode</tspan></text></g></g><g id="GUI_INFO"><polygon class="cls-3" points="1303.01 538.85 1055.45 538.85 1049.46 544.83 1049.46 725.52 1053.45 729.51 1305.01 729.51 1309 725.52 1309 544.83 1303.01 538.85 1303.01 538.85"/><polygon class="cls-3" points="1045.47 677.6 1039.48 677.6 1010.53 706.55 1010.53 708.54 997.55 721.52 997.55 728.51 998.55 729.51 1041.47 729.51 1045.47 725.52 1045.47 677.6 1045.47 677.6"/><g class="cls-4"><polygon class="cls-2" points="1137.07 550.96 1127.08 560.95 1132.05 560.95 1142.04 550.96 1137.07 550.96"/><polygon class="cls-2" points="1149.36 550.96 1139.38 560.95 1144.35 560.95 1154.34 550.96 1149.36 550.96"/><polygon class="cls-2" points="1161.66 550.96 1151.67 560.95 1156.64 560.95 1166.63 550.96 1161.66 550.96"/><polygon class="cls-2" points="1124.77 550.96 1114.79 560.95 1119.76 560.95 1129.74 550.96 1124.77 550.96"/><polygon class="cls-2" points="1087.89 550.96 1077.9 560.95 1082.87 560.95 1092.86 550.96 1087.89 550.96"/><polygon class="cls-2" points="1173.95 550.96 1163.97 560.95 1168.94 560.95 1178.92 550.96 1173.95 550.96"/><polygon class="cls-2" points="1075.59 550.96 1065.61 560.95 1070.58 560.95 1080.56 550.96 1075.59 550.96"/><polygon class="cls-2" points="1112.48 550.96 1102.49 560.95 1107.46 560.95 1117.44 550.96 1112.48 550.96"/><polygon class="cls-2" points="1100.18 550.96 1090.2 560.95 1095.17 560.95 1105.15 550.96 1100.18 550.96"/><polygon class="cls-2" points="1063.3 550.96 1061.27 552.99 1061.27 557.96 1068.27 550.96 1063.3 550.96"/><polygon class="cls-2" points="1272.31 550.96 1262.33 560.95 1267.3 560.95 1277.28 550.96 1272.31 550.96"/><polygon class="cls-2" points="1260.02 550.96 1250.04 560.95 1255 560.95 1264.98 550.96 1260.02 550.96"/><polygon class="cls-2" points="1298.15 550.96 1296.9 550.96 1286.92 560.95 1291.89 560.95 1298.15 554.68 1298.15 550.96"/><polygon class="cls-2" points="1284.61 550.96 1274.63 560.95 1279.6 560.95 1289.58 550.96 1284.61 550.96"/><polygon class="cls-2" points="1247.72 550.96 1237.74 560.95 1242.71 560.95 1252.69 550.96 1247.72 550.96"/><polygon class="cls-2" points="1223.13 550.96 1213.15 560.95 1218.12 560.95 1228.11 550.96 1223.13 550.96"/><polygon class="cls-2" points="1198.54 550.96 1188.56 560.95 1193.53 560.95 1203.51 550.96 1198.54 550.96"/><polygon class="cls-2" points="1210.84 550.96 1200.85 560.95 1205.82 560.95 1215.81 550.96 1210.84 550.96"/><polygon class="cls-2" points="1235.43 550.96 1225.44 560.95 1230.41 560.95 1240.4 550.96 1235.43 550.96"/><polygon class="cls-2" points="1186.25 550.96 1176.27 560.95 1181.23 560.95 1191.21 550.96 1186.25 550.96"/></g><path id="Arrow_07" class="cls-7" d="M1018.63,709.72l8.67,8.67h9l-8.67-8.67,8.67-8.67h-9Z" transform="translate(0 2)"/><g id="Text_Group_03"><path id="Text_Stripes" class="cls-2" d="M1151.77,609h-3l6.08-6.09h3Zm28.55-6.09h-3l-6.08,6.09h3Zm-15,0h-3l-6.08,6.09h3Zm7.49,0h-3l-6.08,6.09h3Zm15,0h-3l-6.08,6.09h3Zm89.89,0h-3L1268.6,609h3Zm-7.49,0h-3L1261.1,609h3Zm-15,0h-3l-6.08,6.09h3Zm7.49,0h-3l-6.08,6.09h3Zm27.82,0h-.88l-6.08,6.09h3l3.94-3.93Zm-5.34,0h-3l-6.09,6.09h3Zm-134.83,0h-3l-6.08,6.09h3Zm-15,0h-3l-6.08,6.09h3Zm7.49,0h-3l-6.08,6.09h3Zm-52.44,0h-3l-6.08,6.09h3Zm7.49,0h-3l-6.08,6.09h3ZM1073.84,609h3l6.08-6.09h-3Zm46.56-6.09h-3l-6.08,6.09h3Zm-7.48,0h-3L1103.8,609h3Zm15,0h-3l-6.08,6.09h3Zm-22.47,0h-3l-6.09,6.09h3Zm-36.6,6.09h.55l6.08-6.09h-3l-3.61,3.61Zm126.49-6.09h-3L1186.2,609h3Zm15,0h-3l-6.08,6.09h3Zm7.5,0h-3l-6.08,6.09h3Zm30,0h-3l-6.08,6.09h3Zm-44.95,0h-3l-6.08,6.09h3Zm22.47,0h-3l-6.08,6.09h3Zm15,0h-3l-6.08,6.09h3Zm-7.49,0h-3l-6.08,6.09h3Z" transform="translate(0 2)"/><text class="cls-32" transform="translate(1068.34 599)">subject id<tspan class="cls-33" x="78.67" y="0" xml:space="preserve">  #7A381d</tspan><tspan class="cls-34"><tspan x="0" y="23.17">memory count:</tspan><tspan class="cls-35" x="81.24" y="23.17">	</tspan><tspan class="cls-36" x="83.67" y="23.17">1345 </tspan><tspan x="0" y="33.47">initiation date: </tspan><tspan class="cls-36" x="96.12" y="33.47">609280162056 /1 1/018</tspan><tspan x="0" y="43.77">blood type:</tspan><tspan class="cls-37" x="67.51" y="43.77">	</tspan><tspan class="cls-36" x="83.67" y="43.77">O</tspan><tspan x="0" y="54.07">relationship:</tspan><tspan class="cls-38" x="80.09" y="54.07">	</tspan><tspan class="cls-36" x="83.67" y="54.07">married</tspan><tspan x="0" y="64.36">sector:</tspan><tspan class="cls-39" x="43.48" y="64.36">	</tspan><tspan class="cls-36" x="83.67" y="64.36">3</tspan><tspan x="0" y="74.66">Pod:</tspan><tspan class="cls-40" x="22.88" y="74.66">	</tspan><tspan class="cls-36" x="83.67" y="74.66">A </tspan><tspan x="0" y="84.96">neural chip:</tspan><tspan class="cls-41" x="72.08" y="84.96">	</tspan><tspan class="cls-36" x="83.67" y="84.96">56352542345</tspan><tspan x="0" y="95.26">N1:</tspan><tspan class="cls-42" x="12.3" y="95.26">	</tspan><tspan class="cls-36" x="83.67" y="95.26">61929384</tspan><tspan x="0" y="105.56">N2:</tspan><tspan class="cls-43" x="16.02" y="105.56">	</tspan><tspan class="cls-36" x="83.67" y="105.56">6847234546</tspan><tspan x="0" y="115.86">N3:</tspan><tspan class="cls-43" x="16.02" y="115.86">	</tspan><tspan class="cls-36" x="83.67" y="115.86">38563234566</tspan></tspan></text></g><text class="cls-44" transform="translate(1184.19 571.51)"><tspan class="cls-45">2345</tspan><tspan class="cls-46" x="21.14" y="0">	</tspan><tspan class="cls-47" x="25.51" y="0">-</tspan><tspan class="cls-48" x="29.04" y="0">	</tspan><tspan class="cls-47" x="33.22" y="0" xml:space="preserve">77456. 3462 2  2 2</tspan></text></g></svg>